# xmcd
#
# Track frame offsets:
#	150
#	15750
#	32250
#	47775
#	66075
#	89475
#	105900
#	123675
#	140175
#	157650
#	176925
#	198450
#	216000
#	238500
#	258375
#	279150
#
# Disc length: 3957 seconds
#
# Revision: 0
# Processed by: cddbd v1.5.2PL0 Copyright (c) Steve Scherf et al.
# Submitted via: EasyCDDAExtractor 16.0.6.1
#
DISCID=d50f7310
DTITLE=Various Artist - Hit Box 5
DYEAR=1994
DGENRE=Dance
TTITLE0=Whigfield - Another Day
TTITLE1=Double Active - Light my fire
TTITLE2=Nina - The reason is you
TTITLE3=Good fun - Good fun
TTITLE4=Chakka Boom Bang - Tossin' and Turnin'
TTITLE5=Tee Green - Don't hold back
TTITLE6=DJ BoBo - Let the dream come true
TTITLE7=Exit - Don't tell me all your dreams
TTITLE8=JLM - Come into my life
TTITLE9=Dance 2 Trance - Warrior
TTITLE10=Tune - Men - Movin'
TTITLE11=Four 2 Floor - Watching you watching me
TTITLE12=Sistema Rosso - Higher and higher
TTITLE13=Spanic - Sister golden hair
TTITLE14=French Junior - I feel so good
TTITLE15=Wildman - Hear this!
EXTD=
EXTT0=
EXTT1=
EXTT2=
EXTT3=
EXTT4=
EXTT5=
EXTT6=
EXTT7=
EXTT8=
EXTT9=
EXTT10=
EXTT11=
EXTT12=
EXTT13=
EXTT14=
EXTT15=
PLAYORDER=
